<svg width="42" height="42" viewBox="0 0 42 42" fill="none" xmlns="http://www.w3.org/2000/svg">
<g clip-path="url(#clip0_414_1156)">
<path d="M21 20.9999C21.9889 20.9999 22.9556 20.7067 23.7779 20.1573C24.6001 19.6079 25.241 18.827 25.6194 17.9134C25.9978 16.9997 26.0969 15.9944 25.9039 15.0245C25.711 14.0546 25.2348 13.1637 24.5355 12.4644C23.8363 11.7651 22.9454 11.2889 21.9755 11.096C21.0055 10.9031 20.0002 11.0021 19.0866 11.3805C18.173 11.759 17.3921 12.3998 16.8427 13.2221C16.2932 14.0443 16 15.011 16 15.9999C16.0013 17.3256 16.5285 18.5966 17.4659 19.534C18.4033 20.4714 19.6743 20.9986 21 20.9999ZM21 12.6666C21.6593 12.6666 22.3037 12.8621 22.8519 13.2284C23.4001 13.5946 23.8273 14.1152 24.0796 14.7243C24.3319 15.3334 24.3979 16.0036 24.2693 16.6502C24.1407 17.2968 23.8232 17.8908 23.357 18.357C22.8908 18.8231 22.2969 19.1406 21.6503 19.2692C21.0037 19.3978 20.3335 19.3318 19.7244 19.0795C19.1153 18.8272 18.5947 18.4 18.2284 17.8518C17.8622 17.3037 17.6667 16.6592 17.6667 15.9999C17.6667 15.1159 18.0179 14.268 18.643 13.6429C19.2681 13.0178 20.1159 12.6666 21 12.6666Z" fill="#DC4F40"/>
<path d="M21 22.6672C19.0115 22.6694 17.1052 23.4603 15.6991 24.8663C14.2931 26.2724 13.5022 28.1787 13.5 30.1672C13.5 30.3882 13.5878 30.6002 13.7441 30.7564C13.9004 30.9127 14.1123 31.0005 14.3333 31.0005C14.5543 31.0005 14.7663 30.9127 14.9226 30.7564C15.0789 30.6002 15.1667 30.3882 15.1667 30.1672C15.1667 28.6201 15.7812 27.1363 16.8752 26.0424C17.9692 24.9484 19.4529 24.3338 21 24.3338C22.5471 24.3338 24.0308 24.9484 25.1248 26.0424C26.2187 27.1363 26.8333 28.6201 26.8333 30.1672C26.8333 30.3882 26.9211 30.6002 27.0774 30.7564C27.2337 30.9127 27.4456 31.0005 27.6667 31.0005C27.8877 31.0005 28.0996 30.9127 28.2559 30.7564C28.4122 30.6002 28.5 30.3882 28.5 30.1672C28.4978 28.1787 27.7069 26.2724 26.3009 24.8663C24.8948 23.4603 22.9884 22.6694 21 22.6672Z" fill="#DC4F40"/>
</g>
<defs>
<clipPath id="clip0_414_1156">
<rect width="20" height="20" fill="white" transform="translate(11 11)"/>
</clipPath>
</defs>
</svg>
