<svg width="42" height="42" viewBox="0 0 42 42" fill="none" xmlns="http://www.w3.org/2000/svg">
<g clip-path="url(#clip0_414_1179)">
<path d="M26.5468 11.7752L16.3868 21.9352C15.9988 22.3212 15.6912 22.7803 15.4817 23.2859C15.2723 23.7916 15.1653 24.3338 15.1668 24.8811V26.0002C15.1668 26.2212 15.2546 26.4332 15.4109 26.5895C15.5672 26.7458 15.7792 26.8336 16.0002 26.8336H17.1193C17.6666 26.8351 18.2088 26.7281 18.7145 26.5187C19.2201 26.3092 19.6792 26.0016 20.0652 25.6136L30.2252 15.4536C30.7122 14.9654 30.9857 14.304 30.9857 13.6144C30.9857 12.9248 30.7122 12.2634 30.2252 11.7752C29.7299 11.3018 29.0712 11.0376 28.386 11.0376C27.7009 11.0376 27.0421 11.3018 26.5468 11.7752ZM29.0468 14.2752L18.8868 24.4352C18.4169 24.9023 17.7818 25.1652 17.1193 25.1669H16.8335V24.8811C16.8352 24.2186 17.0981 23.5835 17.5652 23.1136L27.7252 12.9536C27.9032 12.7835 28.1399 12.6886 28.386 12.6886C28.6322 12.6886 28.8688 12.7835 29.0468 12.9536C29.2218 13.129 29.32 13.3666 29.32 13.6144C29.32 13.8621 29.2218 14.0998 29.0468 14.2752Z" fill="#DC4F40"/>
<path d="M30.1667 18.4825C29.9457 18.4825 29.7337 18.5703 29.5774 18.7266C29.4211 18.8829 29.3333 19.0948 29.3333 19.3158V23.5H26C25.337 23.5 24.7011 23.7634 24.2322 24.2322C23.7634 24.7011 23.5 25.337 23.5 26V29.3333H15.1667C14.5036 29.3333 13.8677 29.0699 13.3989 28.6011C12.9301 28.1323 12.6667 27.4964 12.6667 26.8333V15.1667C12.6667 14.5036 12.9301 13.8677 13.3989 13.3989C13.8677 12.9301 14.5036 12.6667 15.1667 12.6667H22.7017C22.9227 12.6667 23.1346 12.5789 23.2909 12.4226C23.4472 12.2663 23.535 12.0543 23.535 11.8333C23.535 11.6123 23.4472 11.4004 23.2909 11.2441C23.1346 11.0878 22.9227 11 22.7017 11H15.1667C14.062 11.0013 13.003 11.4407 12.2219 12.2218C11.4407 13.003 11.0013 14.062 11 15.1667L11 26.8333C11.0013 27.938 11.4407 28.997 12.2219 29.7782C13.003 30.5593 14.062 30.9987 15.1667 31H24.6192C25.1666 31.0016 25.7089 30.8945 26.2147 30.6851C26.7205 30.4757 27.1797 30.1681 27.5658 29.78L29.7792 27.565C30.1673 27.1791 30.475 26.72 30.6846 26.2143C30.8941 25.7087 31.0013 25.1665 31 24.6192V19.3158C31 19.0948 30.9122 18.8829 30.7559 18.7266C30.5996 18.5703 30.3877 18.4825 30.1667 18.4825ZM26.3875 28.6017C26.0525 28.9358 25.6289 29.1672 25.1667 29.2683V26C25.1667 25.779 25.2545 25.567 25.4107 25.4107C25.567 25.2545 25.779 25.1667 26 25.1667H29.2708C29.1677 25.6279 28.9367 26.0508 28.6042 26.3867L26.3875 28.6017Z" fill="#DC4F40"/>
</g>
<defs>
<clipPath id="clip0_414_1179">
<rect width="20" height="20" fill="white" transform="translate(11 11)"/>
</clipPath>
</defs>
</svg>
