<svg width="42" height="42" viewBox="0 0 42 42" fill="none" xmlns="http://www.w3.org/2000/svg">
<g clip-path="url(#clip0_414_1164)">
<path d="M26.8333 13.5002H21.3933C21.2644 13.5011 21.1371 13.4726 21.0208 13.4169L18.3908 12.0969C18.0437 11.924 17.6612 11.8339 17.2733 11.8336H15.1667C14.062 11.8349 13.003 12.2743 12.2218 13.0554C11.4407 13.8365 11.0013 14.8956 11 16.0002V26.0002C11.0013 27.1049 11.4407 28.1639 12.2218 28.945C13.003 29.7262 14.062 30.1656 15.1667 30.1669H26.8333C27.938 30.1656 28.997 29.7262 29.7781 28.945C30.5593 28.1639 30.9987 27.1049 31 26.0002V17.6669C30.9987 16.5622 30.5593 15.5032 29.7781 14.7221C28.997 13.941 27.938 13.5015 26.8333 13.5002ZM15.1667 13.5002H17.2733C17.4022 13.4994 17.5296 13.5279 17.6458 13.5836L20.2758 14.8994C20.6227 15.0737 21.0052 15.1653 21.3933 15.1669H26.8333C27.3317 15.1677 27.8184 15.3174 28.2311 15.5969C28.6437 15.8764 28.9634 16.2728 29.1492 16.7352L12.6667 16.8286V16.0002C12.6667 15.3372 12.9301 14.7013 13.3989 14.2325C13.8677 13.7636 14.5036 13.5002 15.1667 13.5002ZM26.8333 28.5002H15.1667C14.5036 28.5002 13.8677 28.2368 13.3989 27.768C12.9301 27.2992 12.6667 26.6633 12.6667 26.0002V18.4952L29.3333 18.4011V26.0002C29.3333 26.6633 29.0699 27.2992 28.6011 27.768C28.1323 28.2368 27.4964 28.5002 26.8333 28.5002Z" fill="#DC4F40"/>
</g>
<defs>
<clipPath id="clip0_414_1164">
<rect width="20" height="20" fill="white" transform="translate(11 11)"/>
</clipPath>
</defs>
</svg>
