<svg width="42" height="42" viewBox="0 0 42 42" fill="none" xmlns="http://www.w3.org/2000/svg">
<g clip-path="url(#clip0_412_1073)">
<path d="M21 11C19.0222 11 17.0888 11.5865 15.4443 12.6853C13.7998 13.7841 12.5181 15.3459 11.7612 17.1732C11.0043 19.0004 10.8063 21.0111 11.1922 22.9509C11.578 24.8907 12.5304 26.6725 13.9289 28.0711C15.3275 29.4696 17.1093 30.422 19.0491 30.8079C20.9889 31.1937 22.9996 30.9957 24.8268 30.2388C26.6541 29.4819 28.2159 28.2002 29.3147 26.5557C30.4135 24.9112 31 22.9778 31 21C30.9971 18.3487 29.9426 15.8068 28.0679 13.9321C26.1932 12.0574 23.6513 11.0029 21 11V11ZM21.8333 29.2908V27.6667C21.8333 27.4457 21.7455 27.2337 21.5893 27.0774C21.433 26.9211 21.221 26.8333 21 26.8333C20.779 26.8333 20.567 26.9211 20.4107 27.0774C20.2545 27.2337 20.1667 27.4457 20.1667 27.6667V29.2908C18.2551 29.0962 16.4693 28.248 15.1107 26.8893C13.752 25.5307 12.9038 23.7449 12.7092 21.8333H14.3333C14.5544 21.8333 14.7663 21.7455 14.9226 21.5893C15.0789 21.433 15.1667 21.221 15.1667 21C15.1667 20.779 15.0789 20.567 14.9226 20.4107C14.7663 20.2545 14.5544 20.1667 14.3333 20.1667H12.7092C12.9038 18.2551 13.752 16.4693 15.1107 15.1107C16.4693 13.752 18.2551 12.9038 20.1667 12.7092V14.3333C20.1667 14.5543 20.2545 14.7663 20.4107 14.9226C20.567 15.0789 20.779 15.1667 21 15.1667C21.221 15.1667 21.433 15.0789 21.5893 14.9226C21.7455 14.7663 21.8333 14.5543 21.8333 14.3333V12.7092C23.7449 12.9038 25.5307 13.752 26.8893 15.1107C28.248 16.4693 29.0962 18.2551 29.2908 20.1667H27.6667C27.4457 20.1667 27.2337 20.2545 27.0774 20.4107C26.9211 20.567 26.8333 20.779 26.8333 21C26.8333 21.221 26.9211 21.433 27.0774 21.5893C27.2337 21.7455 27.4457 21.8333 27.6667 21.8333H29.2908C29.0962 23.7449 28.248 25.5307 26.8893 26.8893C25.5307 28.248 23.7449 29.0962 21.8333 29.2908ZM24.3333 21C24.3333 21.221 24.2455 21.433 24.0893 21.5893C23.933 21.7455 23.721 21.8333 23.5 21.8333H21.8333V23.5C21.8333 23.721 21.7455 23.933 21.5893 24.0893C21.433 24.2455 21.221 24.3333 21 24.3333C20.779 24.3333 20.567 24.2455 20.4107 24.0893C20.2545 23.933 20.1667 23.721 20.1667 23.5V21.8333H18.5C18.279 21.8333 18.067 21.7455 17.9107 21.5893C17.7545 21.433 17.6667 21.221 17.6667 21C17.6667 20.779 17.7545 20.567 17.9107 20.4107C18.067 20.2545 18.279 20.1667 18.5 20.1667H20.1667V18.5C20.1667 18.279 20.2545 18.067 20.4107 17.9107C20.567 17.7545 20.779 17.6667 21 17.6667C21.221 17.6667 21.433 17.7545 21.5893 17.9107C21.7455 18.067 21.8333 18.279 21.8333 18.5V20.1667H23.5C23.721 20.1667 23.933 20.2545 24.0893 20.4107C24.2455 20.567 24.3333 20.779 24.3333 21Z" fill="#DC4F40"/>
</g>
<defs>
<clipPath id="clip0_412_1073">
<rect width="20" height="20" fill="white" transform="translate(11 11)"/>
</clipPath>
</defs>
</svg>
