<svg width="42" height="42" viewBox="0 0 42 42" fill="none" xmlns="http://www.w3.org/2000/svg">
<g clip-path="url(#clip0_412_1058)">
<path d="M31 30.1667C31 30.3877 30.9122 30.5997 30.7559 30.756C30.5996 30.9123 30.3877 31 30.1667 31H11.8333C11.6123 31 11.4004 30.9123 11.2441 30.756C11.0878 30.5997 11 30.3877 11 30.1667C11 29.9457 11.0878 29.7337 11.2441 29.5775C11.4004 29.4212 11.6123 29.3334 11.8333 29.3334H30.1667C30.3877 29.3334 30.5996 29.4212 30.7559 29.5775C30.9122 29.7337 31 29.9457 31 30.1667ZM11.2425 18.1267C11.0629 17.7937 10.9797 17.4171 11.0023 17.0394C11.0248 16.6617 11.1521 16.2977 11.37 15.9884C11.726 15.466 12.2029 15.0372 12.76 14.7384L19.0108 11.485C19.6252 11.1656 20.3075 10.9988 21 10.9988C21.6925 10.9988 22.3748 11.1656 22.9892 11.485L29.2392 14.7409C29.7963 15.0397 30.2731 15.4685 30.6292 15.9909C30.847 16.3002 30.9744 16.6642 30.9969 17.0419C31.0194 17.4196 30.9362 17.7962 30.7567 18.1292C30.5633 18.4949 30.2734 18.8005 29.9184 19.0129C29.5634 19.2252 29.157 19.3361 28.7433 19.3334H28.5V26H29.3333C29.5543 26 29.7663 26.0878 29.9226 26.2441C30.0789 26.4004 30.1667 26.6124 30.1667 26.8334C30.1667 27.0544 30.0789 27.2664 29.9226 27.4226C29.7663 27.5789 29.5543 27.6667 29.3333 27.6667H12.6667C12.4457 27.6667 12.2337 27.5789 12.0774 27.4226C11.9211 27.2664 11.8333 27.0544 11.8333 26.8334C11.8333 26.6124 11.9211 26.4004 12.0774 26.2441C12.2337 26.0878 12.4457 26 12.6667 26H13.5V19.3334H13.2567C12.8426 19.336 12.4358 19.2248 12.0807 19.012C11.7255 18.7992 11.4355 18.493 11.2425 18.1267ZM15.1667 26H17.6667V19.3334H15.1667V26ZM19.3333 19.3334V26H22.6667V19.3334H19.3333ZM26.8333 19.3334H24.3333V26H26.8333V19.3334ZM12.7192 17.3542C12.7715 17.4506 12.8493 17.5308 12.9441 17.5859C13.0389 17.641 13.147 17.669 13.2567 17.6667H28.7433C28.853 17.669 28.9611 17.641 29.0559 17.5859C29.1507 17.5308 29.2285 17.4506 29.2808 17.3542C29.3189 17.2905 29.3373 17.217 29.3338 17.1429C29.3302 17.0687 29.3048 16.9973 29.2608 16.9375C29.0589 16.6375 28.7877 16.3905 28.47 16.2175L22.22 12.9617C21.8433 12.7662 21.4252 12.6642 21.0008 12.6642C20.5765 12.6642 20.1583 12.7662 19.7817 12.9617L13.5317 16.2175C13.2142 16.3911 12.9429 16.6383 12.7408 16.9384C12.6967 16.9979 12.6712 17.0691 12.6673 17.143C12.6635 17.217 12.6815 17.2904 12.7192 17.3542Z" fill="#DC4F40"/>
</g>
<defs>
<clipPath id="clip0_412_1058">
<rect width="20" height="20" fill="white" transform="translate(11 11)"/>
</clipPath>
</defs>
</svg>
