<svg width="42" height="42" viewBox="0 0 42 42" fill="none" xmlns="http://www.w3.org/2000/svg">
<g clip-path="url(#clip0_412_1053)">
<path d="M26.8333 14.3333H25.9167C25.7233 13.3928 25.2115 12.5478 24.4677 11.9406C23.7239 11.3334 22.7935 11.0012 21.8333 11L20.1667 11C19.2065 11.0012 18.2761 11.3334 17.5323 11.9406C16.7885 12.5478 16.2767 13.3928 16.0833 14.3333H15.1667C14.062 14.3347 13.003 14.7741 12.2218 15.5552C11.4407 16.3363 11.0013 17.3953 11 18.5V26.8333C11.0013 27.938 11.4407 28.997 12.2218 29.7782C13.003 30.5593 14.062 30.9987 15.1667 31H26.8333C27.938 30.9987 28.997 30.5593 29.7782 29.7782C30.5593 28.997 30.9987 27.938 31 26.8333V18.5C30.9987 17.3953 30.5593 16.3363 29.7782 15.5552C28.997 14.7741 27.938 14.3347 26.8333 14.3333ZM20.1667 12.6667H21.8333C22.3485 12.6688 22.8505 12.8301 23.2706 13.1284C23.6906 13.4267 24.0083 13.8476 24.18 14.3333H17.82C17.9917 13.8476 18.3094 13.4267 18.7294 13.1284C19.1495 12.8301 19.6514 12.6688 20.1667 12.6667ZM15.1667 16H26.8333C27.4964 16 28.1323 16.2634 28.6011 16.7322C29.0699 17.2011 29.3333 17.837 29.3333 18.5V21H12.6667V18.5C12.6667 17.837 12.9301 17.2011 13.3989 16.7322C13.8677 16.2634 14.5036 16 15.1667 16ZM26.8333 29.3333H15.1667C14.5036 29.3333 13.8677 29.0699 13.3989 28.6011C12.9301 28.1323 12.6667 27.4964 12.6667 26.8333V22.6667H20.1667V23.5C20.1667 23.721 20.2545 23.933 20.4107 24.0893C20.567 24.2455 20.779 24.3333 21 24.3333C21.221 24.3333 21.433 24.2455 21.5893 24.0893C21.7455 23.933 21.8333 23.721 21.8333 23.5V22.6667H29.3333V26.8333C29.3333 27.4964 29.0699 28.1323 28.6011 28.6011C28.1323 29.0699 27.4964 29.3333 26.8333 29.3333Z" fill="#DC4F40"/>
</g>
<defs>
<clipPath id="clip0_412_1053">
<rect width="20" height="20" fill="white" transform="translate(11 11)"/>
</clipPath>
</defs>
</svg>
