<?xml version="1.0" standalone="no"?>
<!DOCTYPE svg PUBLIC "-//W3C//DTD SVG 20010904//EN"
 "http://www.w3.org/TR/2001/REC-SVG-20010904/DTD/svg10.dtd">
<svg version="1.0" xmlns="http://www.w3.org/2000/svg"
 width="260.000000pt" height="260.000000pt" viewBox="0 0 260.000000 260.000000"
 preserveAspectRatio="xMidYMid meet">
<metadata>
Created by potrace 1.14, written by Peter Selinger 2001-2017
</metadata>
<g transform="translate(0.000000,260.000000) scale(0.100000,-0.100000)"
fill="#000000" stroke="none">
<path d="M1420 2155 c-6 -7 -1 -11 15 -11 13 0 22 3 20 6 -2 4 2 7 9 7 8 0 12
-6 9 -13 -2 -6 -19 -12 -36 -12 -83 1 -98 -2 -95 -19 2 -10 -3 -18 -9 -19 -7
-1 -17 -2 -22 -3 -5 0 -12 -12 -15 -26 -5 -18 -11 -23 -24 -18 -15 6 -16 5 -2
-12 9 -11 10 -16 3 -11 -13 7 -14 5 -17 -81 0 -17 -4 -34 -7 -37 -4 -4 -5 5
-4 19 2 14 -1 25 -7 25 -5 0 -8 -6 -5 -12 2 -7 0 -23 -4 -36 -7 -17 -6 -21 4
-16 9 6 9 4 1 -7 -6 -8 -10 -35 -10 -61 1 -30 -2 -45 -9 -41 -5 3 -4 0 3 -8
15 -16 122 -20 122 -4 0 7 3 7 8 0 8 -12 41 -13 60 -2 6 5 12 4 12 0 0 -5 9
-9 20 -9 14 0 19 5 15 16 -4 11 -2 11 8 -2 13 -16 43 -18 67 -3 6 3 10 2 10
-3 0 -5 7 -9 15 -9 8 0 15 5 15 11 0 7 3 7 8 1 8 -12 44 -16 37 -5 -3 5 -1 12
5 15 6 4 9 1 8 -6 -4 -16 24 -19 34 -4 5 7 8 6 8 -1 0 -12 38 -13 58 -1 6 5
12 4 12 0 0 -5 9 -9 20 -9 14 0 19 5 15 16 -4 11 -2 11 8 -2 13 -16 43 -18 67
-3 6 3 10 1 10 -4 0 -13 22 -10 32 4 5 6 8 5 8 -4 0 -10 3 -11 14 -2 10 8 16
9 21 1 4 -7 12 -4 23 8 9 10 14 13 10 7 -12 -18 3 -26 20 -12 9 6 13 7 9 1 -3
-6 1 -11 9 -11 9 0 13 6 9 16 -4 13 -3 13 8 -1 13 -17 32 -19 54 -5 6 4 15 3
18 -3 4 -7 13 -4 23 8 9 10 13 12 8 5 -10 -15 -11 -14 27 -17 22 -2 27 1 22
13 -3 10 0 9 10 -4 13 -17 17 -18 25 -5 5 8 7 17 5 20 -2 4 5 6 17 5 46 -3 93
11 90 27 -2 11 6 18 20 20 13 2 23 8 23 15 0 7 9 19 20 27 11 9 16 16 11 16
-5 0 -2 8 5 17 8 10 9 14 2 10 -9 -6 -10 0 -3 22 4 16 5 33 2 37 -4 4 -1 4 6
0 7 -4 9 -12 6 -18 -4 -7 -2 -8 5 -4 6 4 9 11 6 16 -3 4 1 11 7 13 10 4 10 6
0 6 -9 1 -10 7 -4 19 4 9 8 33 7 54 0 20 3 35 6 32 8 -5 5 64 -4 72 -3 4 -4
-3 -2 -15 2 -12 0 -19 -6 -16 -5 4 -9 12 -9 18 0 7 -15 13 -35 13 -19 1 -35
-2 -35 -7 0 -4 9 -6 19 -4 15 3 18 0 14 -13 -5 -11 -8 -12 -11 -4 -3 10 -7 10
-20 0 -12 -10 -14 -10 -8 0 4 7 2 12 -4 12 -6 0 -9 3 -7 8 3 4 -10 8 -29 8
-19 1 -34 -2 -34 -7 0 -4 9 -6 19 -4 11 2 26 -4 33 -13 11 -15 11 -16 -4 -4
-13 10 -17 10 -21 0 -4 -10 -6 -10 -6 1 -1 11 -4 11 -18 0 -11 -10 -14 -10 -9
-1 4 7 2 12 -4 12 -6 0 -8 5 -4 13 5 8 2 7 -10 -2 -13 -11 -14 -16 -4 -22 9
-6 9 -9 1 -9 -6 0 -15 5 -18 10 -4 6 -12 7 -18 3 -14 -9 -66 -11 -65 -3 2 19
-3 30 -12 25 -5 -3 -7 -12 -3 -20 6 -17 -12 -21 -22 -5 -5 8 -11 8 -20 0 -9
-8 -15 -8 -20 0 -3 6 -12 7 -18 3 -14 -9 -66 -11 -65 -3 2 19 -3 30 -12 25 -5
-3 -7 -12 -3 -20 6 -17 -12 -21 -22 -5 -4 6 -11 8 -16 5 -5 -3 -6 0 -3 8 4 11
-5 14 -38 12 -35 -1 -42 -4 -40 -18 4 -23 -15 -21 -30 3 -14 21 -38 27 -38 9
0 -5 4 -7 10 -4 5 3 7 0 4 -8 -5 -13 -53 -19 -52 -7 1 20 -3 30 -12 25 -5 -3
-7 -12 -3 -20 6 -17 -12 -21 -22 -5 -4 6 -12 7 -18 3 -18 -11 -57 -11 -64 0
-3 5 -10 3 -15 -4 -8 -11 -9 -11 -5 1 2 10 16 15 45 14 23 0 42 3 42 7 0 4
-37 6 -82 5 -72 -2 -83 -5 -80 -19 4 -22 -14 -22 -30 1 -14 20 -63 24 -78 7z
m168 -13 c4 -14 -33 -11 -49 5 -7 7 -1 10 17 9 15 -1 29 -7 32 -14z m320 0 c4
-14 -33 -11 -49 5 -7 7 -1 10 17 9 15 -1 29 -7 32 -14z m502 -2 c0 -5 -2 -10
-4 -10 -3 0 -8 5 -11 10 -3 6 -1 10 4 10 6 0 11 -4 11 -10z"/>
<path d="M1500 2161 c0 -6 4 -13 10 -16 6 -3 7 1 4 9 -7 18 -14 21 -14 7z"/>
<path d="M1700 2161 c0 -6 4 -13 10 -16 6 -3 7 1 4 9 -7 18 -14 21 -14 7z"/>
<path d="M1750 2161 c0 -5 7 -11 14 -14 10 -4 13 -1 9 9 -6 15 -23 19 -23 5z"/>
<path d="M1820 2161 c0 -6 4 -13 10 -16 6 -3 7 1 4 9 -7 18 -14 21 -14 7z"/>
<path d="M1940 2161 c0 -6 4 -13 10 -16 6 -3 7 1 4 9 -7 18 -14 21 -14 7z"/>
<path d="M1990 2159 c0 -5 5 -10 10 -10 33 -4 44 -3 47 7 2 6 -9 11 -27 12
-16 0 -30 -4 -30 -9z"/>
<path d="M2064 2160 c2 -16 20 -14 24 2 3 10 2 10 -6 -1 -7 -9 -11 -10 -15 -2
-4 7 -5 8 -3 1z"/>
<path d="M2100 2161 c0 -6 4 -13 10 -16 6 -3 7 1 4 9 -7 18 -14 21 -14 7z"/>
<path d="M2150 2160 c0 -5 5 -11 10 -11 34 -4 44 -3 48 9 2 6 -3 12 -11 12 -9
0 -18 -6 -20 -12 -4 -10 -6 -10 -6 0 -1 14 -21 17 -21 2z"/>
<path d="M2231 1772 c-6 -2 -11 -8 -11 -14 0 -7 4 -7 13 1 9 7 17 7 24 0 7 -7
12 -6 16 3 5 13 -17 18 -42 10z"/>
<path d="M845 1480 c-3 -5 -3 -14 0 -20 3 -5 1 -10 -4 -10 -6 0 -11 5 -11 10
0 6 -5 10 -11 10 -5 0 -7 -4 -4 -10 6 -10 -8 -14 -35 -10 -8 1 -12 -1 -8 -5
10 -10 -11 -47 -22 -40 -5 3 -12 1 -15 -5 -4 -6 -3 -10 2 -9 25 4 36 -3 16
-11 -18 -7 -23 -17 -23 -45 0 -31 -6 -39 -30 -37 -3 0 -5 -15 -5 -34 0 -19 4
-34 9 -34 5 0 4 -6 -1 -12 -5 -7 -9 -27 -8 -44 1 -26 -3 -30 -22 -28 -20 2
-21 0 -13 -17 13 -24 21 -25 14 -1 -5 16 -5 16 9 0 13 -17 64 -18 800 -18 693
0 787 2 795 15 7 14 36 25 69 27 10 1 10 4 0 17 -9 12 -9 13 1 7 10 -6 17 9
14 35 -1 3 6 6 13 6 11 0 12 -4 4 -14 -8 -9 -8 -13 0 -13 6 0 11 3 12 8 0 4 2
22 4 41 2 19 10 38 17 42 7 5 8 9 3 9 -6 0 -11 9 -12 20 -1 11 3 20 8 20 6 0
8 -4 4 -9 -3 -5 -1 -12 5 -16 10 -6 11 0 14 90 1 38 6 53 21 63 18 12 18 13 1
7 -16 -5 -17 -3 -6 10 11 13 -77 15 -780 15 -624 0 -796 -2 -808 -12 -13 -10
-14 -10 -8 0 4 6 5 12 2 12 -3 0 -8 -4 -11 -10z m-120 -207 c-2 -10 -4 -19 -4
-21 -1 -2 -6 0 -11 3 -8 5 -7 11 1 21 15 18 18 18 14 -3z"/>
<path d="M2290 1119 c0 -5 5 -7 10 -4 6 3 10 8 10 11 0 2 -4 4 -10 4 -5 0 -10
-5 -10 -11z"/>
<path d="M360 837 c0 -4 -4 -5 -10 -2 -5 3 -7 0 -5 -7 4 -10 -5 -14 -27 -16
-32 -3 -51 -18 -42 -34 3 -4 -4 -8 -15 -8 -14 0 -21 -6 -21 -20 0 -11 -5 -20
-11 -20 -5 0 -7 6 -3 13 5 9 4 9 -5 1 -13 -12 -22 -59 -22 -109 0 -25 -2 -27
-10 -12 -6 9 -7 22 -3 29 5 7 3 8 -5 4 -7 -5 -10 -14 -7 -21 3 -8 0 -16 -7
-19 -9 -3 -8 -5 1 -5 9 -1 10 -6 2 -20 -7 -14 -6 -21 3 -24 9 -4 9 -6 -1 -6
-7 -1 -10 -5 -7 -11 3 -5 1 -19 -5 -30 -7 -13 -7 -20 -1 -20 6 0 8 -7 5 -15
-4 -8 -2 -15 4 -15 6 0 8 -10 5 -22 -5 -23 -5 -23 10 -3 9 11 17 16 17 12 0
-4 10 -3 21 4 15 8 19 8 15 0 -4 -6 -2 -11 4 -11 6 0 8 -5 5 -10 -3 -6 -2 -10
4 -10 5 0 13 9 16 20 8 24 18 25 35 5 10 -12 8 -14 -9 -10 -12 2 -21 0 -21 -4
0 -4 18 -8 40 -7 22 0 40 5 40 10 0 4 -7 6 -15 2 -22 -8 -18 2 6 15 16 8 20 8
14 -1 -9 -14 27 -10 37 5 5 6 8 5 8 -3 0 -7 4 -10 10 -7 16 10 50 15 49 7 -3
-20 2 -32 11 -27 6 4 8 11 5 16 -4 5 -1 9 4 9 6 0 11 -6 11 -13 0 -8 7 -14 15
-14 11 0 12 4 4 13 -7 8 -7 14 1 19 5 3 14 -2 18 -12 5 -14 18 -18 55 -19 26
0 47 3 47 7 0 3 -17 6 -37 5 -37 -1 -60 15 -28 20 8 1 12 -2 9 -7 -6 -11 38
-5 57 7 8 4 9 3 5 -4 -4 -7 -2 -12 4 -12 6 0 9 -4 6 -8 -3 -5 12 -8 32 -7 28
1 37 5 36 18 -1 9 2 14 7 11 5 -3 9 -11 9 -18 0 -7 7 -13 15 -13 11 0 12 4 4
13 -7 8 -7 14 1 19 5 3 14 -2 18 -12 7 -19 62 -28 62 -11 0 5 -9 7 -19 3 -22
-7 -37 10 -20 21 8 4 9 3 5 -4 -9 -15 -1 -15 26 -1 15 8 19 8 13 -1 -9 -14 27
-10 37 5 5 6 8 5 8 -3 0 -7 4 -10 10 -7 16 10 50 15 49 7 -3 -20 3 -28 22 -28
18 0 18 2 4 12 -14 11 -14 12 0 18 10 3 13 2 10 -4 -7 -12 36 -7 56 6 8 4 9 3
5 -4 -4 -7 -2 -12 4 -12 6 0 8 -4 5 -10 -3 -5 -2 -10 4 -10 5 0 13 9 16 20 8
24 18 25 35 5 10 -12 8 -14 -9 -10 -12 2 -21 0 -21 -4 0 -5 15 -8 34 -7 31 1
33 3 20 17 -12 14 -12 16 1 16 8 0 12 -4 9 -9 -6 -10 39 -3 57 8 8 4 9 3 5 -4
-4 -7 -2 -12 4 -12 6 0 8 -4 5 -10 -3 -5 -2 -10 4 -10 5 0 13 9 16 20 8 24 18
25 35 5 10 -12 8 -14 -9 -10 -12 2 -21 0 -21 -6 0 -5 10 -7 23 -5 13 2 21 10
21 20 -1 9 2 13 7 10 5 -3 9 -11 9 -18 0 -7 7 -13 15 -13 11 0 12 4 4 13 -7 8
-7 14 1 19 5 3 14 -2 18 -12 5 -14 18 -18 55 -19 26 0 47 3 47 7 0 3 -17 6
-37 5 -38 -1 -63 15 -30 20 9 1 14 -2 11 -7 -6 -11 38 -5 57 7 8 4 9 3 5 -4
-4 -7 -2 -12 4 -12 6 0 9 -4 6 -8 -3 -5 12 -8 32 -7 28 1 37 5 36 18 -1 9 2
14 7 11 5 -3 9 -11 9 -18 0 -7 7 -13 15 -13 11 0 12 4 4 13 -7 8 -7 14 1 19 5
3 14 -2 18 -12 4 -10 13 -19 21 -21 12 -3 12 0 2 12 -8 10 -9 16 -1 21 5 3 14
-2 18 -12 4 -10 13 -19 21 -21 12 -3 12 0 2 12 -8 10 -9 16 -1 21 5 3 14 -2
18 -12 5 -14 18 -18 55 -19 26 0 47 3 47 7 0 3 -18 6 -40 5 -37 -1 -58 15 -25
20 8 1 12 -2 9 -7 -6 -11 38 -5 57 7 8 4 9 3 5 -4 -4 -7 -2 -12 4 -12 6 0 9
-4 6 -8 -3 -5 12 -8 32 -7 28 1 37 5 36 18 -1 9 2 14 7 11 5 -3 9 -11 9 -18 0
-7 7 -13 15 -13 11 0 12 4 4 13 -7 8 -7 14 1 19 5 3 14 -2 18 -12 4 -10 17
-19 30 -19 12 -1 20 1 17 5 -4 3 -11 6 -16 6 -17 0 -14 18 4 21 9 1 14 -2 11
-7 -6 -11 38 -5 57 7 8 4 9 3 5 -4 -4 -7 -2 -12 4 -12 6 0 8 -5 5 -10 -3 -6
-2 -10 4 -10 5 0 13 9 16 20 8 24 18 25 35 5 10 -12 8 -14 -9 -10 -12 2 -21 0
-21 -4 0 -5 15 -8 34 -7 31 1 33 3 20 17 -12 14 -12 16 1 16 8 0 12 -4 9 -9
-6 -10 39 -3 57 8 8 4 9 3 5 -4 -4 -7 -2 -12 4 -12 6 0 8 -5 5 -10 -3 -6 -2
-10 4 -10 5 0 13 9 16 20 8 24 18 25 35 5 10 -12 8 -14 -9 -10 -12 2 -21 0
-21 -6 0 -5 10 -7 23 -5 12 3 28 5 36 5 11 1 10 4 -3 14 -16 12 -15 13 15 12
43 -1 70 11 63 30 -4 10 0 13 15 10 17 -3 21 1 21 21 0 20 4 24 18 20 14 -5
18 0 19 27 2 61 7 86 16 80 5 -3 6 -11 3 -19 -3 -8 -1 -14 4 -14 6 0 11 21 11
48 3 94 6 122 12 128 3 3 3 13 -1 22 -5 15 -4 15 11 3 9 -7 17 -9 17 -3 0 18
-56 36 -66 21 -3 -6 -11 -5 -20 2 -11 9 -14 8 -14 -2 0 -9 -3 -10 -8 -4 -10
14 -53 15 -45 1 4 -6 -1 -5 -10 3 -14 11 -17 11 -17 0 0 -9 -3 -10 -8 -4 -9
13 -95 14 -104 0 -5 -6 -8 -4 -8 5 0 13 -1 13 -10 0 -9 -13 -10 -13 -10 0 0
13 -1 13 -10 0 -5 -8 -10 -10 -10 -4 0 6 -7 11 -15 11 -8 0 -12 -4 -9 -8 2 -4
0 -11 -6 -14 -6 -4 -9 -1 -8 5 2 7 -5 14 -14 15 -10 2 -18 -2 -18 -8 0 -7 -5
-5 -10 3 -9 13 -10 13 -10 0 0 -13 -1 -13 -10 0 -9 13 -10 13 -10 0 0 -9 -3
-11 -8 -5 -9 13 -35 19 -28 6 4 -5 2 -13 -4 -16 -6 -4 -9 -1 -8 6 4 16 -24 19
-34 4 -5 -6 -8 -6 -8 3 0 6 -5 12 -11 12 -5 0 -7 -5 -3 -12 5 -7 3 -8 -7 -2
-8 4 -44 9 -82 9 -57 1 -67 -2 -62 -15 3 -9 -1 -8 -10 4 -11 14 -15 16 -15 5
0 -8 -3 -10 -8 -4 -4 6 -16 11 -27 11 -11 0 -23 -5 -27 -11 -5 -7 -8 -7 -8 0
0 6 -44 10 -115 10 -98 0 -114 -2 -110 -15 3 -9 -1 -7 -10 4 -11 14 -15 16
-15 5 0 -8 -3 -10 -8 -4 -9 14 -45 14 -54 0 -5 -6 -8 -6 -8 0 0 6 -18 11 -40
11 -35 1 -38 -1 -28 -15 8 -10 4 -9 -10 3 -17 14 -22 16 -22 5 0 -8 -3 -10 -8
-4 -10 14 -53 15 -45 1 4 -6 -1 -5 -10 3 -14 11 -17 11 -17 0 0 -9 -3 -10 -8
-4 -9 13 -95 14 -104 0 -5 -6 -8 -4 -8 5 0 13 -1 13 -10 0 -9 -13 -10 -13 -10
0 0 13 -1 13 -10 0 -5 -8 -10 -10 -10 -4 0 6 -7 11 -15 11 -8 0 -12 -4 -9 -8
2 -4 0 -11 -6 -14 -6 -4 -9 -1 -8 5 2 7 -5 14 -14 15 -10 2 -18 -2 -18 -8 0
-7 -5 -5 -10 3 -9 13 -10 13 -10 0 0 -13 -1 -13 -10 0 -9 13 -10 13 -10 0 0
-9 -3 -11 -8 -5 -9 13 -35 19 -28 6 4 -5 2 -13 -4 -16 -6 -4 -9 -1 -8 5 2 7
-5 14 -15 15 -14 3 -17 -1 -13 -13 5 -15 4 -15 -8 1 -15 19 -31 23 -20 5 5 -9
2 -9 -9 1 -14 11 -17 11 -17 0 0 -9 -3 -10 -8 -4 -10 14 -53 15 -45 1 4 -6 -1
-5 -10 3 -14 11 -17 11 -17 0 0 -9 -3 -10 -8 -4 -10 14 -53 15 -45 1 4 -6 -1
-5 -10 3 -14 11 -17 11 -17 0 0 -9 -3 -10 -8 -4 -10 14 -53 15 -45 1 4 -6 -1
-5 -10 3 -14 11 -17 11 -17 0 0 -9 -3 -10 -8 -4 -9 13 -95 14 -104 0 -5 -7 -8
-7 -8 1 0 5 -11 10 -25 10 -14 0 -25 -4 -25 -9z m30 -1 c0 -2 -8 -10 -17 -17
-16 -13 -17 -12 -4 4 13 16 21 21 21 13z m1100 -16 c0 -5 -2 -10 -4 -10 -3 0
-8 5 -11 10 -3 6 -1 10 4 10 6 0 11 -4 11 -10z m320 0 c0 -5 -2 -10 -4 -10 -3
0 -8 5 -11 10 -3 6 -1 10 4 10 6 0 11 -4 11 -10z m605 -140 c3 -5 1 -10 -4
-10 -6 0 -11 5 -11 10 0 6 2 10 4 10 3 0 8 -4 11 -10z m-1717 -223 c9 -10 6
-13 -12 -13 -16 0 -22 5 -19 13 3 7 9 13 13 13 4 0 12 -6 18 -13z m800 0 c9
-10 6 -13 -12 -13 -16 0 -22 5 -19 13 3 7 9 13 13 13 4 0 12 -6 18 -13z m320
0 c9 -10 6 -13 -12 -13 -16 0 -22 5 -19 13 3 7 9 13 13 13 4 0 12 -6 18 -13z"/>
<path d="M2450 779 c0 -5 5 -7 10 -4 6 3 10 8 10 11 0 2 -4 4 -10 4 -5 0 -10
-5 -10 -11z"/>
<path d="M133 492 c0 -12 5 -22 9 -22 11 0 10 12 -2 30 -7 12 -9 10 -7 -8z"/>
<path d="M420 450 c-7 -4 -21 -7 -31 -5 -10 2 -21 1 -23 -3 -3 -4 11 -8 30 -8
19 0 34 5 34 11 0 5 5 3 10 -5 6 -9 10 -10 10 -3 0 17 -14 23 -30 13z"/>
<path d="M900 450 c-7 -4 -21 -7 -31 -5 -10 2 -21 1 -23 -3 -3 -4 11 -8 30 -8
19 0 34 5 34 11 0 5 5 3 10 -5 6 -9 10 -10 10 -3 0 17 -14 23 -30 13z"/>
<path d="M190 438 c0 -3 9 -6 20 -5 11 1 20 5 20 9 0 3 -9 6 -20 5 -11 -1 -20
-5 -20 -9z"/>
<path d="M990 438 c0 -3 9 -6 20 -5 11 1 20 5 20 9 0 3 -9 6 -20 5 -11 -1 -20
-5 -20 -9z"/>
<path d="M1150 438 c0 -3 9 -6 20 -5 11 1 20 5 20 9 0 3 -9 6 -20 5 -11 -1
-20 -5 -20 -9z"/>
<path d="M1950 438 c0 -3 9 -6 20 -5 11 1 20 5 20 9 0 3 -9 6 -20 5 -11 -1
-20 -5 -20 -9z"/>
<path d="M2110 438 c0 -3 9 -6 20 -5 11 1 20 5 20 9 0 3 -9 6 -20 5 -11 -1
-20 -5 -20 -9z"/>
</g>
</svg>
